PathFileType	4	(X/Y/Z)	T1_P1_Vision_NoMovement_1_0-649.trc
DataRate	CameraRate	NumFrames	NumMarkers	Units	OrigDataRate	OrigDataStartFrame	OrigNumFrames
60	60	5	27	m	60	243	649
Frame#	Time	RHip			RKnee			RAnkle			RBigToe			RSmallToe			RHeel			LHip			LKnee			LAnkle			LBigToe			LSmallToe			LHeel			Neck			Head			Nose			RShoulder			RElbow			RWrist			RThumb			RIndex			RPinky			LShoulder			LElbow			LWrist			LThumb			LIndex			LPinky		
		X1	Y1	Z1	X2	Y2	Z2	X3	Y3	Z3	X4	Y4	Z4	X5	Y5	Z5	X6	Y6	Z6	X7	Y7	Z7	X8	Y8	Z8	X9	Y9	Z9	X10	Y10	Z10	X11	Y11	Z11	X12	Y12	Z12	X13	Y13	Z13	X14	Y14	Z14	X15	Y15	Z15	X16	Y16	Z16	X17	Y17	Z17	X18	Y18	Z18	X19	Y19	Z19	X20	Y20	Z20	X21	Y21	Z21	X22	Y22	Z22	X23	Y23	Z23	X24	Y24	Z24	X25	Y25	Z25	X26	Y26	Z26	X27	Y27	Z27
244	4.066666666666666	-66.14717464582347	3789.1684976309984	-546.718090079637	286.57146628910516	3975.3449705778644	-529.3582092194206	629.883335150119	4134.236774681712	-529.1816485698549	691.7680650050955	3995.9582647986263	-460.96111021960496	686.6450454383206	3948.3916944802586	-505.00780158246135	672.145948245144	4164.613786388455	-528.6825309602964	-102.14587969843711	3905.587338737049	-364.07707670830865	241.68722352562966	4005.50399184621	-378.73011340919754	624.2696794758468	4244.929876996099	-448.17652452114453	665.9026607959546	3968.1915691452687	-346.97755691782663	676.9438632178147	4124.179521617017	-345.4031729924567	672.3322578453775	4303.727048028777	-485.05956989529733	-679.5814916060552	3685.7541917418894	-498.04770034824105	-916.6645759470342	3540.047415105219	-431.8201120899436	-789.6790317043162	3572.6886227453406	-407.952620515084	-558.93835186162	3658.7651103038456	-655.6860295823185	-287.1385405529453	3693.6619911649404	-693.951466858927	-27.090028433283084	3636.381734863923	-603.3232315977518	84.84566869141132	3743.9603064899766	-562.2957980987678	112.5287159099676	3712.061131039772	-555.1938863148665	99.31240839862758	3653.5148843426223	-580.2865131264997	-618.9141921004574	3789.5294748991864	-383.34620015779643	-389.5251283067043	3982.6033153459794	-346.3157311735899	-124.34898128554461	3954.78594524115	-247.8899114850413	17.766569946290105	3893.9258676049444	-264.95113205194815	26.667363643550686	3908.990636225588	-209.0714681644128	2.0417201834974827	3978.7591022492534	-217.04911050305972
245	4.083333333333333	-66.08017415634859	3789.34657835914	-547.7201486202621	285.8784001156	3972.7898310574	-526.8819012840169	629.9659038176809	4131.344620521123	-528.4535067365723	689.4208201208965	3998.2181686335625	-461.7572399901578	684.8633968788291	3948.5593470368212	-503.89582521342174	674.9666355911236	4164.896585727079	-530.9011431569079	-102.18428031485618	3905.6836261655344	-364.13314979486637	240.1764917396767	4004.5014417966863	-378.2935828281442	624.3461209247214	4244.0030830587275	-449.40380273939917	662.7992519031189	3965.8411397007376	-346.4172653723948	676.4921936907431	4123.927929260477	-345.41227629440596	673.4803602029206	4305.433513170275	-486.24032656227666	-679.575142603583	3685.748875261038	-498.02935385285696	-916.619458881755	3540.0521292905532	-431.78333373315655	-785.9686572991502	3570.0259984893864	-407.19033575697216	-558.5011908286546	3654.5313484044386	-652.0197995737825	-287.2192360982722	3693.840022087881	-692.7921146937608	-27.455407820264185	3630.392766780896	-598.3330337535381	84.31937850953241	3740.1818978829997	-561.460422554499	112.24639850464311	3705.2537719024367	-553.6108578925777	97.01616366538796	3655.3760374121252	-581.0250450086553	-619.1233257125014	3791.400111360668	-384.69850182823177	-390.5385577025986	3982.3063743433086	-346.44698422033207	-124.3067297092231	3949.014852683108	-245.370366449375	17.333232252262107	3887.3214817399175	-260.33978751119054	26.806488233651866	3908.4978872454894	-208.9333753703725	0.5418711244771546	3977.9078701976405	-217.00291323509555
246	4.1	-66.03524629041809	3789.4767831908916	-548.394725747245	285.0675666506807	3966.014669802539	-524.2944741314179	631.3889494061939	4134.5101904744915	-529.0128638429087	690.4804313913621	4008.8625162302983	-465.15466166744625	684.5302081517322	3954.0031632804767	-505.51524836887927	677.2773694423566	4174.189386925266	-535.9299408712452	-102.20692609695158	3905.7633733139237	-364.15789259047074	237.78788535793208	4003.4439056794677	-377.3082825935399	623.8397472159807	4239.824584247266	-449.04080642791615	662.874389203929	3969.064076075425	-346.47088296958805	676.4737691068146	4123.9399402007	-345.39732824278	675.3663047190189	4309.504343226165	-488.9566312871402	-679.5625954366677	3685.7293265873386	-497.99840371832863	-916.5743996538831	3540.03405367964	-431.7546281522772	-783.286854111103	3568.164399333369	-406.6271569107948	-558.5120136323582	3654.381452930097	-651.2957587840874	-287.37208546122633	3694.0019275200457	-691.8940118828741	-27.68353129964428	3625.908070623525	-594.7113420808457	84.7475989447466	3740.650217050727	-561.5505480309155	112.21088657682844	3704.9740036905664	-553.5653540995916	95.65879266205926	3658.9951827889877	-582.3341508443812	-618.8942906422769	3789.4957874003535	-383.29493806119615	-391.5366805525002	3981.9831625003817	-346.58477497450355	-125.56493539694974	3947.3435923342045	-243.91024783638034	15.733870577921822	3881.0995821389306	-255.88973718688405	26.605635237075347	3905.6767428996045	-208.36606604232355	-1.171677853102836	3976.851350239562	-216.8199650190556
247	4.116666666666666	-66.07914441103671	3789.4438768402892	-547.9438946816532	285.20097689362467	3958.895726034731	-522.6462616101838	633.0451021460864	4140.35569048687	-530.2313724953749	693.8479724162836	4020.365444180945	-467.6796166130814	685.9011647847436	3961.7715008069486	-507.04067393151774	679.5613073354205	4187.9546137222915	-541.9254789145282	-102.20202246237582	3905.7814017525425	-364.14101432557834	236.25308682044812	4002.913128284552	-375.64176107855565	623.8170433473938	4239.243595328275	-449.24216942253554	665.9789049088175	3978.2710630086412	-346.70580429567156	676.5737445400276	4124.008660508695	-345.3544940566003	677.021271942517	4316.428703039013	-493.5886545575469	-679.5503444038907	3685.6872691100457	-497.9489645459889	-916.5318650224091	3540.0003464462347	-431.73298232449315	-782.4416413717669	3567.943304179949	-406.52234084921173	-558.8531101475902	3656.9322155652762	-652.0174659687752	-287.53025058350005	3694.1384134535597	-691.5775109478161	-27.69497286723715	3624.679145181135	-593.7397012908291	85.66933501306453	3744.281056925847	-562.3399739483502	112.4601417902021	3711.31175845893	-555.0493237517596	95.67379156594595	3661.1633565167767	-583.5437244456551	-618.29545442365	3784.2080051942926	-379.4284800934595	-392.0279380742397	3981.781964754153	-346.6698458891171	-126.9531826341823	3948.0976043108462	-243.5813944719042	14.124206294497053	3877.5198166963955	-253.01452155777338	25.725312693272723	3899.939250891031	-207.2378023112232	-2.1647246676834295	3976.230310251576	-216.68423591095828
248	4.133333333333334	-66.16619621102097	3789.291075824126	-546.9213220132091	285.7677842590348	3956.5374892941386	-522.5558404733656	633.7914278147291	4145.777729569138	-531.468722977317	696.9039541268793	4024.8172423082924	-466.6072640924938	687.7988276291333	3967.5830147686966	-505.70099098661035	681.1888673543853	4195.941739633926	-543.8088167156541	-102.1799586870928	3905.7269009754073	-364.097228414143	235.63947118046357	4002.677605168613	-373.6078232939756	624.5829283320683	4244.750601471087	-450.51751658369267	668.9927396422771	3988.7102803996295	-346.62745732838664	676.5340834035688	4123.936028800907	-345.26716774787576	676.4426274381401	4321.319574290855	-496.8834811191293	-679.5469767991735	3685.628700224689	-497.8898061776227	-916.4961788854866	3539.9847888585887	-431.7137064560431	-782.6166453376545	3567.904684763259	-406.5223188554892	-559.1414088137265	3658.588628676369	-651.538775389528	-287.89277097434064	3694.138839229261	-692.1743717954597	-27.538449212190123	3626.4368788275387	-595.205386968776	86.3635867895041	3749.1309903583865	-563.475235888914	112.75997909023802	3718.469281101582	-556.721272312083	96.687591936552	3659.318160548587	-584.3296844175895	-617.5846427103319	3777.5631697138465	-374.58110004738734	-392.0822920169926	3981.6969863561653	-346.6880274229878	-127.7047618398181	3948.8878629602686	-243.66906302712408	13.251406728252379	3876.417862796957	-251.93840642620196	24.168642921026475	3893.4749507407278	-205.91300717166985	-2.4694828908805135	3976.011025382428	-216.6249595172311
